<?xml version="1.0" encoding="utf-8"?>
<!-- Generator: Adobe Illustrator 21.0.2, SVG Export Plug-In . SVG Version: 6.00 Build 0)  -->
<svg version="1.1" id="レイヤー_1" xmlns="http://www.w3.org/2000/svg" xmlns:xlink="http://www.w3.org/1999/xlink" x="0px"
	 y="0px" viewBox="0 0 320 240" style="enable-background:new 0 0 320 240;" xml:space="preserve">
<style type="text/css">
	.st0{opacity:0.1;fill:#333333;enable-background:new    ;}
	.st1{fill:#0073CF;}
	.st2{fill:#FFFFFF;}
	.st3{opacity:0.1;enable-background:new    ;}
	.st4{fill:#FFE000;}
	.st5{opacity:0.5;fill:#FFFFFF;enable-background:new    ;}
	.st6{fill:none;stroke:#FFFFFF;stroke-width:2;stroke-linecap:round;stroke-miterlimit:10;}
	.st7{fill:none;stroke:#0073CF;stroke-width:2;stroke-linecap:round;stroke-miterlimit:10;}
	.st8{fill:none;stroke:#000000;stroke-width:3;stroke-linecap:round;stroke-miterlimit:10;}
	.st9{fill:none;stroke:#000000;stroke-width:4;stroke-linecap:round;stroke-miterlimit:10;}
	.st10{fill:#80B9E7;}
	.st11{fill:#A4A4A4;}
	.st12{fill:none;stroke:#A4A4A4;stroke-width:2;stroke-linecap:round;stroke-miterlimit:10;}
	.st13{fill:#0050FF;}
</style>
<path class="st0" d="M123-68H27c-7.2,0-13,5.8-13,13V61c0,7.2,5.8,13,13,13h96c7.2,0,13-5.8,13-13V-55C136-62.2,130.2-68,123-68z"/>
<path class="st1" d="M123-71H27c-7.2,0-13,5.8-13,13V58c0,7.2,5.8,13,13,13h96c7.2,0,13-5.8,13-13V-58C136-65.2,130.2-71,123-71z"/>
<path class="st2" d="M123-69H27c-6.1,0-11,4.9-11,11V58c0,6.1,4.9,11,11,11h96c6.1,0,11-4.9,11-11V-58C134-64.1,129.1-69,123-69z"/>
<path class="st3" d="M111,42H39c-3.9,0-7,3.1-7,7v11c0,3.9,3.1,7,7,7h72c3.9,0,7-3.1,7-7V49C118,45.1,114.9,42,111,42z"/>
<path class="st4" d="M111,40H39c-3.9,0-7,3.1-7,7v11c0,3.9,3.1,7,7,7h72c3.9,0,7-3.1,7-7V47C118,43.1,114.9,40,111,40z"/>
<path class="st5" d="M111,42H39c-2.2,0-4,1.8-4,4s1.8,4,4,4h72c2.2,0,4-1.8,4-4S113.2,42,111,42z"/>
<g>
	<path d="M60.3,46.3c-0.4,0.9-0.6,1.3-0.9,1.9h3.4v1.5H57c1.5,1.4,3.6,2.5,5.9,3.1l-0.8,1.7c-0.5-0.2-0.6-0.3-1.1-0.4v6.4H47.7V54
		c-0.1,0-0.2,0.1-0.9,0.3L46,52.7c3.4-0.9,5-2.3,5.7-2.9h-5.6v-1.5h3.2c-0.2-0.4-0.3-0.7-0.7-1.3l1.6-0.4c0.3,0.6,0.5,1,0.8,1.7h2.5
		v-1.9c-2.6,0.1-3.8,0.1-6.4,0.1l-0.3-1.6c1.9,0,8.6,0.1,13.9-0.8l0.8,1.6c-2.4,0.3-3.6,0.4-6.4,0.6v2h2.4c0.5-0.9,0.8-1.7,0.9-2.2
		L60.3,46.3z M49.5,54.2v1.7h4.1v-1.7H49.5z M49.5,57.2V59h4.1v-1.8H49.5z M53.5,52.7v-2.8c-0.5,0.6-1.4,1.6-3.3,2.8H53.5z
		 M58.4,52.7c-1.5-0.9-2.3-1.6-3.2-2.9v2.9H58.4z M55.2,54.2v1.7h4.2v-1.7H55.2z M55.2,57.2V59h4.2v-1.8H55.2z"/>
	<path d="M66.2,52c0.6,0,1.1,0,1.7,0c0.2-0.2,0.4-0.6,1-1.4c-0.9-1.1-1.6-1.7-2.6-2.4l0.9-1.4c0.2,0.1,0.5,0.3,0.5,0.4
		c0.7-1,1.1-1.8,1.6-2.9l1.8,0.6c-0.6,1.2-1.1,1.9-2.2,3.4c0.5,0.5,0.7,0.7,0.9,0.9c0.8-1.1,1.3-2.1,1.9-3.1l1.7,0.7
		c-0.7,1.1-0.9,1.4-3.6,5.1c0.3,0,1.9-0.1,2.3-0.1c-0.2-0.8-0.3-1-0.5-1.3l1.5-0.5c0.6,1.3,0.8,1.9,1.2,3.5L72.7,54
		c-0.1-0.4-0.1-0.5-0.2-0.9c-0.3,0-1,0.1-1.5,0.1v7.7h-1.8v-7.5c-0.7,0.1-1.8,0.2-3,0.2L66.2,52L66.2,52z M68.6,54.8
		c0,1.1-0.3,3.7-0.6,4.9L66.4,59c0.5-1.5,0.7-3.1,0.7-4.4L68.6,54.8z M73.1,54.4c0.5,1.7,0.5,1.8,0.9,3.6l-1.6,0.3
		c-0.2-1.6-0.3-2.2-0.7-3.6L73.1,54.4z M74.6,44.7h7.8v13.9h0.9v1.8H73.1v-1.8h1.5L74.6,44.7L74.6,44.7z M76.4,46.4v2.8h4.2v-2.8
		H76.4z M76.4,51v2.8h4.2V51H76.4z M76.4,55.4v3.2h4.2v-3.2H76.4z"/>
	<path d="M103,61c-3.2-1.2-6.2-4.3-7.5-8.2c-0.3,0.4-1.2,1.3-2.7,2.4v3.4c1.4-0.2,2.8-0.5,4.7-0.9v1.6c-2.1,0.5-6.9,1.3-9,1.6
		l-0.4-1.7C89,59.1,90,59,91,58.9v-2.6c-0.7,0.3-1.6,0.8-3.5,1.4l-0.7-1.8c3.8-0.9,5.9-2.8,6.4-3.2H87v-1.6h7.5v-1.3h-6.3v-1.5h6.3
		v-1.2h-7.1v-1.6h7.1V44h1.8v1.5h7.1v1.6h-7.1v1.2h6.2v1.5h-6.2v1.3h7.5v1.6h-6.6c0.2,0.4,0.5,1.4,1.4,2.6c0.3-0.2,1.6-1,3-2.4
		l1.3,1.3c-1.2,1-2.5,2-3.2,2.4c1.9,1.9,3.6,2.5,4.3,2.8L103,61z"/>
</g>
<path class="st2" d="M7.5,91C3.9,91,1,93.9,1,97.5s2.9,6.5,6.5,6.5s6.5-2.9,6.5-6.5S11.1,91,7.5,91z M7.5,102C5,102,3,100,3,97.5
	S5,93,7.5,93s4.5,2,4.5,4.5S10,102,7.5,102z"/>
<line class="st6" x1="12" y1="102" x2="16" y2="106"/>
<line class="st7" x1="81" y1="91" x2="99" y2="109"/>
<line class="st7" x1="99" y1="91" x2="81" y2="109"/>
<g>
	<path d="M188.2,106.8c-0.3,0.7-0.5,1-0.8,1.5h2.9v1.2h-4.8c1.3,1.1,3,1.9,5.1,2.4l-0.7,1.3c-0.4-0.2-0.5-0.2-0.9-0.3v5h-11.5v-5
		c-0.1,0-0.2,0.1-0.7,0.2l-0.7-1.3c2.9-0.7,4.3-1.7,4.9-2.3h-4.8v-1.2h2.8c-0.2-0.3-0.3-0.5-0.6-1l1.4-0.3c0.3,0.4,0.4,0.8,0.7,1.3
		h2.1v-1.5c-2.2,0.1-3.2,0.1-5.5,0.1l-0.3-1.2c1.7,0,7.3,0.1,11.9-0.6l0.7,1.2c-2,0.3-3,0.3-5.4,0.5v1.6h2.1
		c0.4-0.7,0.6-1.3,0.8-1.7L188.2,106.8z M179,112.9v1.3h3.5v-1.3H179z M179,115.2v1.4h3.5v-1.4H179z M182.5,111.8v-2.2
		c-0.4,0.5-1.2,1.2-2.8,2.2H182.5z M186.6,111.8c-1.3-0.7-1.9-1.3-2.8-2.2v2.2H186.6z M183.9,112.9v1.3h3.5v-1.3H183.9z
		 M183.9,115.2v1.4h3.5v-1.4H183.9z"/>
	<path d="M192.5,111.2c0.5,0,0.9,0,1.4,0c0.1-0.2,0.4-0.5,0.9-1.1c-0.8-0.9-1.3-1.3-2.2-1.9l0.8-1.1c0.1,0.1,0.4,0.3,0.5,0.3
		c0.6-0.8,1-1.4,1.4-2.3l1.5,0.5c-0.5,0.9-0.9,1.5-1.8,2.7c0.4,0.4,0.6,0.6,0.8,0.7c0.6-0.9,1.1-1.6,1.6-2.4l1.4,0.6
		c-0.6,0.9-0.8,1.1-3,4c0.3,0,1.6-0.1,1.9-0.1c-0.2-0.6-0.3-0.7-0.4-1l1.3-0.4c0.5,1,0.7,1.5,1,2.7l-1.4,0.4
		c-0.1-0.3-0.1-0.4-0.2-0.7c-0.2,0-0.9,0.1-1.2,0.1v6h-1.5v-5.8c-0.6,0.1-1.5,0.1-2.5,0.2L192.5,111.2z M194.6,113.4
		c0,0.8-0.2,2.9-0.5,3.8l-1.4-0.5c0.4-1.2,0.6-2.4,0.6-3.4L194.6,113.4z M198.3,113.1c0.4,1.3,0.5,1.4,0.7,2.8l-1.4,0.3
		c-0.2-1.2-0.3-1.7-0.6-2.8L198.3,113.1z M199.7,105.6h6.6v10.8h0.8v1.4h-8.7v-1.4h1.3V105.6z M201.2,106.9v2.2h3.5v-2.2H201.2z
		 M201.2,110.4v2.1h3.5v-2.1C204.7,110.4,201.2,110.4,201.2,110.4z M201.2,113.9v2.5h3.5v-2.5C204.7,113.9,201.2,113.9,201.2,113.9z
		"/>
	<path d="M223.1,118.2c-2.7-0.9-5.3-3.3-6.4-6.3c-0.3,0.3-1,1-2.3,1.9v2.6c1.2-0.2,2.4-0.4,4-0.7v1.3c-1.8,0.4-5.9,1-7.7,1.2
		l-0.3-1.3c0.8-0.1,1.6-0.1,2.5-0.2v-2c-0.6,0.3-1.4,0.6-3,1.1l-0.6-1.4c3.3-0.7,5.1-2.2,5.5-2.5h-5.3v-1.2h6.4v-1h-5.3v-1.2h5.3
		v-0.9h-6.1v-1.2h6.1v-1.1h1.5v1.1h6v1.2h-6v0.9h5.3v1.2h-5.3v1h6.4v1.2h-5.7c0.1,0.3,0.4,1.1,1.2,2c0.2-0.1,1.4-0.8,2.5-1.9l1.1,1
		c-1,0.8-2.1,1.5-2.7,1.9c1.6,1.5,3,2,3.7,2.2L223.1,118.2z"/>
</g>
<g>
	<path d="M183.7,62.8c-1.5,2.3-3.7,3.6-6.7,4.3v-1.7c2.2-0.6,4-1.6,5.1-3.4c-1.6-0.7-2.7-1.2-4.3-1.6v-1.7c1.7,0.5,3.1,1,5.1,1.8
		c0.7-1.6,1-3,1.1-4.6h1.8c-0.2,1.8-0.6,3.6-1.4,5.3c1.3,0.6,2.3,1.2,3.3,1.9v2.1C186.5,64.4,185.3,63.6,183.7,62.8z"/>
	<path d="M189.5,66.5v-1.7h11.3v1.7H189.5z M190.6,58.6v-1.7h9.1v1.7H190.6z"/>
	<path d="M202.9,66.7v-1.5h5.8l0.6-5.6H204V58h7.1l-0.7,7.2h2.5v1.5H202.9z"/>
	<path d="M213.7,62.7v-1.7h9.3v1.7C223,62.7,213.7,62.7,213.7,62.7z"/>
</g>
<g>
	<path d="M180,155h5.2v4.5h-3.6v7.5H180V155z M181.5,156.8h2.2v-0.7h-2.2V156.8z M181.5,158.5h2.2v-0.7h-2.2V158.5z M181.6,164.8
		c2.4-1,3.3-2.2,3.7-2.6H182v-1.4h4.2v-0.9h1.5v0.9h1.9v1.4h-1.9v3.4c0,0.6-0.3,1.1-1.1,1.1h-1.9l-0.2-1.5h1.4c0.2,0,0.3,0,0.3-0.3
		V163c-0.9,1.2-2.5,2.6-3.7,3.1L181.6,164.8z M186.3,155h5.2v11c0,0.3-0.1,1.1-1.1,1.1h-1.9l-0.3-1.6h1.5c0.2,0,0.4,0,0.4-0.3v-5.5
		h-3.7L186.3,155L186.3,155z M187.8,156.8h2.2v-0.7h-2.2V156.8z M187.8,158.5h2.2v-0.7h-2.2V158.5z"/>
	<path d="M199.5,166.7c-2.5,0-4.5-1-4.5-4.3v-7.1h1.8v7.1c0,2,1.2,2.6,2.8,2.6c2.4,0,3.7-1.6,4-5.2h1.8
		C205.1,164.3,203,166.7,199.5,166.7z M201.1,157.5v-2h1.2v2H201.1z M202.9,157.5v-2h1.2v2H202.9z"/>
	<path d="M214.6,166.8c-2.6,0-4.5-0.9-4.5-2.6c0-0.9,0.8-2,2.6-2c1.9,0,3.1,1.1,3.4,1.3v1.5c1.2-0.3,2.2-1.1,2.2-2.3
		c0-1.2-1.1-2.1-3.1-2.1c-2.1,0-3.7,0.3-6.5,2.3v-1.9l6.5-4.1h-5.1v-1.6h8.4v1.4l-4.1,2.6c0.4-0.1,0.9-0.2,1.5-0.2
		c2.5,0,4.3,1.3,4.3,3.5C220,165.2,217.8,166.8,214.6,166.8z M212.5,163.7c-0.7,0-0.9,0.3-0.9,0.5c0,0.7,1.6,1.1,2.7,1.1
		c0.5,0,1,0,1.4-0.1C215,164.5,213.8,163.7,212.5,163.7z"/>
</g>
<line class="st8" x1="188" y1="173.5" x2="212" y2="189.5"/>
<line class="st8" x1="212" y1="173.5" x2="188" y2="189.5"/>
<rect x="195" y="138" width="10" height="5"/>
<path d="M216,124c0-1.7-1.3-3-3-3h-26c-1.7,0-3,1.3-3,3v14c0,1.7,1.3,3,3,3v0h7l-3,3h18l-2.7-3h6.7v0c1.7,0,3-1.3,3-3h0L216,124
	L216,124z M214,137c0,0.6-0.4,1-1,1h-26c-0.6,0-1-0.4-1-1v-13c0-0.6,0.4-1,1-1h26c0.6,0,1,0.4,1,1V137z"/>
<polygon points="188,135 188,125 209,125 "/>
<line class="st8" x1="188" y1="73.5" x2="212" y2="73.5"/>
<line class="st8" x1="188" y1="81.5" x2="212" y2="81.5"/>
<line class="st8" x1="188" y1="89.5" x2="212" y2="89.5"/>
<line class="st9" x1="281" y1="71" x2="286" y2="76"/>
<path d="M274,54c-5.5,0-10,4.5-10,10s4.5,10,10,10s10-4.5,10-10S279.5,54,274,54z M274,71c-3.9,0-7-3.1-7-7s3.1-7,7-7
	c3.9,0,7,3.1,7,7S277.9,71,274,71z"/>
<path class="st10" d="M269,101c-4.4,0-8,3.6-8,8s3.6,8,8,8s8-3.6,8-8S273.4,101,269,101z M267.4,113.4c-0.2,0.2-0.4,0.2-0.6,0.2
	c-0.3,0-0.6-0.1-0.8-0.4c-0.3-0.4-0.3-1.1,0.1-1.4l3.6-2.9l-3.6-2.9c-0.4-0.3-0.5-1-0.1-1.4c0.3-0.4,1-0.5,1.4-0.1l5.5,4.4
	L267.4,113.4z"/>
<circle class="st11" cx="8" cy="218" r="8"/>
<circle class="st2" cx="8" cy="218" r="6"/>
<line class="st12" x1="13" y1="223" x2="19" y2="229"/>
<g>
	<path class="st13" d="M223.4,17.2c0-1.9-0.7-3.8-2.1-5.1l0,0l0,0c1.1-1.3,1.7-3,1.7-4.7c0-3.9-3.2-7.2-7.2-7.2h-8.1v24.3h8.3
		C220.1,24.6,223.4,21.3,223.4,17.2z M212.4,4.8h3.5c1.4,0,2.6,1.2,2.6,2.6s-1.2,2.6-2.6,2.6h-3.5V4.8z M212.4,20.2v-5.7h3.7
		c1.6,0,2.9,1.3,2.9,2.9s-1.3,2.9-2.9,2.9C216,20.2,212.4,20.2,212.4,20.2z"/>
	<polygon class="st13" points="203.5,0.4 187.1,0.4 187.1,4.9 192.8,4.9 192.8,25.3 197.7,23.1 197.7,4.9 203.5,4.9 	"/>
	<path class="st13" d="M237.9,17.7c0,1.3-1.2,2.6-2.9,2.6c-1.7,0-2.9-0.8-3.6-2.6l-0.1-0.2l-4.5,2l0.1,0.1c1.3,3.4,4.1,5.2,7.9,5.2
		c3.1,0,4.9-1.3,6-2.4c1.3-1.3,2.1-3.1,2.1-4.8c0-2.1-0.9-3.8-2.6-5.1c-1.2-0.9-2.7-1.7-4.7-2.2c-2.3-0.7-3.4-1.6-3.4-3.4
		c0-1.1,1.1-2.2,2.6-2.2c2.1,0,2.9,1.8,3.1,2.2l4.3-1.9c-0.9-2.3-2.9-4.8-7.4-4.8c-2.2,0-4,0.7-5.4,2s-2.1,3-2.1,4.8s0.7,3.5,2,4.8
		c0.9,1,2.6,2.1,5.3,2.9C236.3,15.1,237.9,15.6,237.9,17.7z"/>
</g>
</svg>
